<?xml version="1.0" encoding="UTF-8" standalone="no"?>
<svg
   version="1.0"
   width="512.000000pt"
   height="512.000000pt"
   viewBox="0 0 512.000000 512.000000"
   preserveAspectRatio="xMidYMid meet"
   id="svg1"
   sodipodi:docname="snowdrop.svg"
   inkscape:version="1.3.2 (091e20ef0f, 2023-11-25, custom)"
   xmlns:inkscape="http://www.inkscape.org/namespaces/inkscape"
   xmlns:sodipodi="http://sodipodi.sourceforge.net/DTD/sodipodi-0.dtd"
   xmlns="http://www.w3.org/2000/svg"
   xmlns:svg="http://www.w3.org/2000/svg">
  <defs
     id="defs1" />
  <sodipodi:namedview
     id="namedview1"
     pagecolor="#c2e1c1"
     bordercolor="#000000"
     borderopacity="0.25"
     inkscape:showpageshadow="2"
     inkscape:pageopacity="0.0"
     inkscape:pagecheckerboard="0"
     inkscape:deskcolor="#d1d1d1"
     inkscape:document-units="pt"
     showgrid="false"
     inkscape:zoom="0.63720703"
     inkscape:cx="340.54866"
     inkscape:cy="355.45747"
     inkscape:window-width="1128"
     inkscape:window-height="683"
     inkscape:window-x="0"
     inkscape:window-y="0"
     inkscape:window-maximized="1"
     inkscape:current-layer="g17" />
  <g
     transform="translate(0.000000,512.000000) scale(0.100000,-0.100000)"
     fill="#000000"
     stroke="none"
     id="g1">
    <path
       d="M3855 5109 c-923 -150 -1645 -549 -2176 -1204 -242 -298 -432 -643 -599 -1090 -11 -29 -12 -28 -56 80 -113 276 -309 640 -481 895 -114 167 -150 210 -192 227 -78 33 -186 -7 -216 -81 -18 -42 -60 -253 -84 -422 -89 -617 -56 -1288 89 -1817 139 -507 364 -999 653 -1432 158 -236 175 -254 250 -262 53 -6 83 8 192 91 407 309 785 757 998 1182 209 417 357 1000 361 1419 1 100 -1 113 -22 143 -50 69 -137 85 -213 39 -94 -56 -272 -209 -450 -386 -201 -201 -312 -334 -447 -533 -47 -70 -87 -126 -89 -124 -2 2 8 63 22 137 118 611 326 1106 642 1528 117 156 383 422 538 537 289 216 603 372 951 474 75 22 142 40 148 40 8 0 10 -70 8 -240 l-3 -240 -59 -29 c-187 -93 -345 -251 -448 -449 -129 -249 -181 -522 -169 -897 9 -272 43 -471 123 -715 50 -155 81 -204 152 -243 111 -61 206 -44 323 56 l75 64 37 -66 c101 -176 194 -251 312 -251 118 0 203 68 309 246 l42 71 59 -54 c88 -80 126 -97 210 -98 59 0 78 5 123 29 76 42 106 90 156 246 80 248 113 442 123 715 17 516 -100 894 -358 1156 -74 76 -208 172 -281 202 l-36 15 -4 259 -3 258 -31 55 c-27 48 -91 111 -123 121 -8 3 -7 21 0 59 22 105 -35 221 -135 272 -48 24 -135 31 -221 17z m159 -181 c39 -34 43 -78 12 -115 -22 -26 -36 -32 -103 -42 -759 -116 -1429 -472 -1884 -998 -375 -435 -617 -932 -773 -1588 -6 -25 -14 -5 -46 120 -21 83 -43 162 -49 177 -12 32 27 165 115 392 206 529 497 953 894 1305 436 386 1032 656 1670 755 121 19 136 19 164 -6z m131 -328 c47 -18 55 -58 55 -290 l0 -210 -175 0 -175 0 0 210 c0 271 3 278 100 293 52 9 170 7 195 -3z m-309 -722 c-47 -398 -24 -783 70 -1157 27 -103 27 -104 9 -155 -59 -166 -191 -390 -318 -536 -184 -211 -242 -209 -312 9 -39 123 -75 284 -96 426 -21 138 -18 524 5 650 70 385 245 650 516 779 41 20 88 36 104 36 l29 0 -7 -52z m510 13 c267 -129 441 -394 510 -776 22 -125 26 -500 6 -645 -19 -133 -58 -306 -99 -435 -55 -176 -100 -201 -205 -113 -70 60 -199 216 -266 323 -152 245 -248 536 -287 872 -23 197 -16 718 10 801 3 9 38 12 128 12 122 0 123 0 203 -39z m-3990 -129 c353 -504 629 -1129 739 -1669 31 -157 63 -386 73 -538 l8 -120 -42 -110 c-23 -60 -50 -138 -59 -172 -10 -35 -21 -63 -25 -63 -3 0 -19 60 -34 133 -81 395 -377 1485 -422 1555 -23 35 -58 45 -100 27 -43 -18 -60 -56 -46 -105 5 -19 53 -186 107 -370 171 -592 313 -1182 370 -1548 24 -148 24 -157 9 -265 -8 -62 -16 -116 -18 -121 -1 -5 -34 43 -74 107 -330 536 -556 1145 -627 1687 -56 432 -52 944 10 1340 26 165 57 320 64 320 3 0 33 -40 67 -88z m2069 -1119 c-34 -405 -115 -751 -256 -1095 -138 -335 -352 -659 -625 -947 -112 -118 -318 -304 -322 -292 -5 15 127 317 228 520 106 214 247 464 365 649 44 69 75 128 75 143 0 56 -62 99 -114 80 -76 -29 -465 -723 -637 -1136 -17 -42 -33 -74 -35 -72 -7 7 36 240 71 382 115 470 293 831 604 1225 104 132 393 419 531 528 63 51 117 92 118 92 2 0 1 -35 -3 -77z m1765 -552 l63 -92 -19 -42 c-25 -55 -103 -174 -141 -214 -24 -26 -39 -33 -68 -33 -31 0 -44 7 -75 41 -40 44 -123 175 -141 225 -11 28 -8 34 39 99 51 71 172 281 172 300 0 5 24 -35 53 -91 30 -55 82 -142 117 -193z"
       id="path1" />
  </g>
  <g
     id="g17">
    <g
       id="g18"
       style="fill:#ffffff">
      <path
         style="fill:#ffffff;stroke-width:1.56935;fill-opacity:0.80000001"
         d="m 615.33872,430.66789 c -5.37599,-2.17673 -23.72447,-21.88244 -34.95185,-37.53725 -17.60039,-24.54095 -33.82461,-62.8743 -40.52065,-95.73907 -5.52227,-27.10379 -6.63241,-43.63333 -6.05738,-90.19197 0.46652,-37.77371 0.92744,-45.12307 2.9084,-46.37498 1.29471,-0.81822 8.83151,-1.49848 16.74844,-1.5117 13.85375,-0.0231 14.88531,0.22615 27.4636,6.6367 22.61047,11.52347 41.20979,32.42896 53.47942,60.11044 12.11606,27.335 17.41691,70.03367 14.00001,112.77077 -3.38081,42.28551 -17.73344,91.74069 -27.00183,93.04079 -1.26436,0.17735 -3.99503,-0.36433 -6.06816,-1.20373 z"
         id="path15"
         transform="scale(0.75)" />
      <path
         style="fill:#ffffff;stroke-width:1.56935;fill-opacity:0.80000001"
         d="m 447.56256,427.96673 c -6.30371,-6.74815 -14.21175,-32.54755 -20.06088,-65.44719 -5.39982,-30.37242 -4.21967,-83.6107 2.42927,-109.58788 10.57151,-41.30247 32.9323,-72.20545 63.21304,-87.36143 15.32803,-7.67193 19.10147,-8.08896 17.78572,-1.96563 -2.36286,10.9964 -3.79688,58.20584 -2.40583,79.20238 2.06809,31.21592 4.30927,46.42435 11.1101,75.39213 2.00137,8.52476 2.88353,15.98306 2.27445,19.22973 -1.359,7.2441 -17.2558,38.15253 -27.10229,52.69543 -9.32398,13.77118 -24.99845,32.21079 -31.41003,36.95107 -7.92384,5.85836 -11.03034,6.03324 -15.83355,0.89139 z"
         id="path16"
         transform="scale(0.75)" />
      <path
         style="fill:#ffffff;stroke-width:1.56935;fill-opacity:0.80000001"
         d="m 514.74636,106.64437 c 0,-28.249521 0.10566,-29.209939 3.59769,-32.70197 3.88101,-3.881014 17.9164,-6.491247 25.87153,-4.811461 2.34948,0.496109 5.73967,1.193876 7.53376,1.550594 5.82481,1.158137 6.93878,7.081027 6.93878,36.892697 v 28.17443 h -21.97088 -21.97088 z"
         id="path17"
         transform="scale(0.75)" />
    </g>
    <path
       style="fill:#efeb71;stroke-width:1.56935;fill-opacity:1"
       d="m 527.80743,448.64632 c -5.96863,-6.32861 -19.33846,-28.31949 -19.33846,-31.80819 0,-1.23397 4.12668,-8.66391 9.17041,-16.51097 5.04372,-7.84707 11.15872,-17.97498 13.58888,-22.50647 2.43015,-4.53149 4.83588,-8.2307 5.34606,-8.22046 0.51018,0.0102 3.32199,4.42403 6.24847,9.80843 2.92648,5.38439 9.10579,15.64032 13.7318,22.79094 4.62601,7.15062 8.41093,13.87435 8.41093,14.94162 0,3.19067 -13.42415,24.97004 -19.29249,31.30016 -6.90434,7.44766 -10.99062,7.49453 -17.8656,0.20494 z"
       id="path18"
       transform="scale(0.75)" />
  </g>
  <g
     id="g14"
     inkscape:label="tige">
    <path
       style="fill:#44aa00;stroke-width:1.56935"
       d="m 166.22116,634.4092 c 12.66436,-32.83615 42.45756,-91.62617 68.15098,-134.48028 10.06115,-16.78102 18.29299,-32.17312 18.29299,-34.20467 0,-4.73863 -6.631,-11.39781 -11.34959,-11.39781 -5.68736,0 -9.45595,3.5257 -18.78311,17.57257 -18.15994,27.34917 -57.52411,101.05763 -68.84343,128.90767 -2.04814,5.03922 -3.95451,8.47035 -4.23638,7.62473 -0.87311,-2.61931 7.09001,-39.49812 12.84905,-59.50658 14.99349,-52.09144 39.66925,-100.0161 73.75656,-143.2482 16.98292,-21.53901 81.17463,-83.17548 86.62366,-83.17548 0.99202,0 -0.49689,14.34981 -4.31505,41.58774 -4.99795,35.65437 -15.96519,76.7325 -29.51391,110.54525 -11.38981,28.4249 -36.5288,70.55729 -59.04779,98.96279 -11.1818,14.10475 -60.64777,64.3433 -63.35381,64.3433 -1.00828,0 -1.09268,-1.29473 -0.23017,-3.53103 z"
       id="path12"
       transform="scale(0.75)" />
    <path
       style="fill:#44aa00;stroke-width:1.56935"
       d="M 117.78862,622.58367 C 108.97554,609.18994 93.19707,580.79251 83.158295,560.25747 50.925698,494.32337 32.761258,431.26751 26.648202,364.08889 c -2.669847,-29.33993 -2.299342,-95.587 0.688995,-123.19387 2.426262,-22.4143 9.717672,-67.39561 11.158255,-68.83619 0.962055,-0.96206 0.157541,-2.00908 13.7021,17.83236 39.678206,58.12464 73.181608,132.40378 89.185278,197.72931 6.32518,25.81883 12.63452,70.1948 12.94269,91.03084 0.2506,16.94358 0.12118,17.6239 -6.99836,36.78659 -4.88199,13.14018 -7.53639,18.52793 -8.11833,16.47816 -0.47556,-1.67508 -2.39957,-10.10766 -4.27558,-18.73908 -11.56851,-53.22615 -45.927446,-179.96143 -54.076473,-199.4648 -3.724212,-8.91329 -16.180331,-9.12363 -21.101292,-0.35633 -2.19024,3.90219 -1.506089,7.03283 11.338409,51.88398 23.960941,83.6682 42.274876,159.32243 50.495496,208.59515 3.86159,23.14558 3.98085,25.429 2.0666,39.57063 l -2.03147,15.00767 z"
       id="path13"
       transform="scale(0.75)" />
    <path
       style="fill:#44aa00;stroke-width:1.56935"
       d="m 161.76256,368.54582 c -6.1233,-23.16917 -6.16701,-22.73105 5.47976,-54.92776 C 205.28179,208.46041 268.75211,130.34504 357.36861,79.62229 405.22602,52.229432 475.89354,28.613274 521.1771,24.879644 c 11.29298,-0.931107 12.06055,-0.78734 14.51647,2.718973 6.51182,9.296929 0.64387,15.881904 -16.67144,18.708576 -136.0063,22.202614 -243.13818,98.366177 -304.61211,216.558707 -17.08231,32.8432 -36.4478,84.79781 -43.43305,116.52414 -1.09272,4.96306 -2.43156,9.02375 -2.97518,9.02375 -0.54362,0 -3.35128,-8.94058 -6.23923,-19.86797 z"
       id="path14"
       transform="scale(0.75)" />
  </g>
</svg>
